#!OML:ASF H:\Terrain\Patient Classification 1\Walking\liu\liu.ASF
:FULLY-SPECIFIED
:DEGREES
81
root 8.51553 16.3257 -25.8643 7.33608 2.06835 2.77521
lowerback -3.42732 -3.48579 -5.06992
upperback -0.12634 -4.49772 2.23173
thorax 2.36111 -2.31782 4.88628
lowerneck -23.4018 -3.24946 -11.1943
upperneck 23.3252 -3.63772 11.1273
head 11.9667 -1.19782 5.49327
rclavicle -4.62174e-015 -1.03368e-014
rhumerus -46.7912 12.2578 -86.2282
rradius 31.9946
rwrist -15.7835
rhand -27.3827 -28.2133
rfingers 7.12502
rthumb -0.789756 -58.1916
lclavicle -4.62174e-015 -1.03368e-014
lhumerus -17.5262 -16.2833 85.3566
lradius 31.2961
lwrist 6.33622
lhand -12.9681 -25.8094
lfingers 7.12502
lthumb 13.1239 3.75761
rfemur -38.1374 0.923172 18.0215
rtibia 40.8123
rfoot -17.6613 -7.21932
rtoes -14.7652
lfemur -1.82682 1.28795 -28.5614
ltibia 14.0523
lfoot -16.1847 0.205696
ltoes 3.21142
82
root 8.51614 16.3206 -25.6844 7.49973 2.34257 3.06096
lowerback -3.60909 -3.57853 -5.31159
upperback -0.109702 -4.60042 2.13065
thorax 2.50394 -2.37522 4.89695
lowerneck -23.2116 -3.24596 -11.2119
upperneck 23.0144 -3.63152 11.1544
head 11.8103 -1.19503 5.49121
rclavicle 4.62174e-015 -1.27222e-014
rhumerus -47.1814 11.8945 -86.066
rradius 31.7708
rwrist -15.5924
rhand -27.9988 -28.2066
rfingers 7.12502
rthumb -1.38476 -58.1819
lclavicle 4.62174e-015 -1.27222e-014
lhumerus -16.6522 -17.1843 85.0536
lradius 31.9897
lwrist 6.93272
lhand -13.4696 -25.8846
lfingers 7.12502
lthumb 12.6405 3.71294
rfemur -38.6454 1.41074 17.3549
rtibia 38.4849
rfoot -17.4536 -7.02498
rtoes -14.2369
lfemur -0.163689 1.34338 -28.7693
ltibia 11.8511
lfoot -15.6799 -0.138905
ltoes 3.26957
83
root 8.51761 16.3196 -25.5045 7.73748 2.68166 3.23621
lowerback -3.91164 -3.60194 -5.37631
upperback -0.108744 -4.61191 2.0687
thorax 2.67609 -2.38561 4.84873
lowerneck -23.2457 -3.44882 -11.559
upperneck 22.9322 -3.84508 11.3768
head 11.8284 -1.29281 5.59979
rclavicle 2.86747e-014 1.59028e-015
rhumerus -47.4602 10.8376 -85.3918
rradius 31.4467
rwrist -15.8471
rhand -27.9412 -25.545
rfingers 7.12502
rthumb -1.32915 -55.5206
lclavicle 2.86747e-014 1.59028e-015
lhumerus -15.7062 -18.0205 84.8818
lradius 32.6663
lwrist 7.55919
lhand -13.5753 -25.9584
lfingers 7.12502
lthumb 12.5386 3.64539
rfemur -39.1152 2.02151 16.7069
rtibia 36.1261
rfoot -17.5156 -6.80661
rtoes -15.8399
lfemur 1.37132 1.3265 -28.8306
ltibia 9.66596
lfoot -14.9184 -0.443646
ltoes 3.48087
84
root 8.51571 16.3235 -25.325 7.98968 2.89826 3.0873
lowerback -4.25063 -3.64927 -5.18512
upperback -0.084493 -4.66744 2.09094
thorax 2.88484 -2.41674 4.7377
lowerneck -23.3537 -3.54424 -11.7946
upperneck 22.8444 -3.97209 11.7191
head 11.848 -1.32452 5.75183
rclavicle 2.11209e-014 3.97569e-015
rhumerus -47.6521 10.0265 -84.8727
rradius 31.2714
rwrist -16.6469
rhand -27.8023 -22.3827
rfingers 7.12502
rthumb -1.19494 -52.3591
lclavicle 2.11209e-014 3.97569e-015
lhumerus -14.7995 -18.4195 84.5449
lradius 33.3546
lwrist 7.99006
lhand -13.3557 -26.2864
lfingers 7.12502
lthumb 12.7503 3.30428
rfemur -39.5614 3.08249 16.257
rtibia 33.7999
rfoot -17.981 -6.84304
rtoes -19.3079
lfemur 3.02897 1.46396 -28.5575
ltibia 7.25234
lfoot -14.0099 -0.584247
ltoes 3.09914
85
root 8.51221 16.3226 -25.1406 8.1865 3.12729 2.86091
lowerback -4.43674 -3.81277 -5.06261
upperback -0.168052 -4.88874 2.26317
thorax 2.93482 -2.52648 4.81992
lowerneck -23.1608 -3.42842 -11.9487
upperneck 22.6575 -3.80871 11.9002
head 11.7227 -1.24561 5.86644
rclavicle 3.35449e-014 7.15625e-015
rhumerus -48.0339 9.85642 -84.5406
rradius 31.0815
rwrist -16.756
rhand -29.8924 -21.7601
rfingers 7.12502
rthumb -3.2135 -51.7156
lclavicle 3.35449e-014 7.15625e-015
lhumerus -14.2777 -18.4209 84.3642
lradius 34.0424
lwrist 8.14673
lhand -13.5036 -26.5784
lfingers 7.12502
lthumb 12.6077 3.02118
rfemur -39.9625 4.2573 15.8125
rtibia 31.5897
rfoot -18.4475 -6.86716
rtoes -20.7174
lfemur 5.16435 1.60579 -28.1976
ltibia 4.14079
lfoot -12.9745 -0.694897
ltoes 1.19011
86
root 8.51124 16.3088 -24.9546 8.3465 3.46005 2.86538
lowerback -4.40486 -4.02895 -5.10927
upperback -0.383172 -5.18102 2.36563
thorax 2.74371 -2.66413 4.93712
lowerneck -23.2058 -3.32331 -11.8229
upperneck 22.8844 -3.64781 11.6536
head 11.7858 -1.19388 5.78548
rclavicle 8.79622e-015 7.95139e-015
rhumerus -48.3206 9.35581 -84.0069
rradius 30.3894
rwrist -16.0511
rhand -31.9854 -22.3851
rfingers 7.12502
rthumb -5.23465 -52.3005
lclavicle 8.79622e-015 7.95139e-015
lhumerus -13.9367 -18.5435 84.25
lradius 34.6141
lwrist 8.47918
lhand -14.0317 -26.6719
lfingers 7.12502
lthumb 12.0986 2.95828
rfemur -40.3808 5.5908 14.9117
rtibia 29.6613
rfoot -19.2504 -6.84224
rtoes -19.7197
lfemur 7.8063 1.61763 -28.079
ltibia 0
lfoot -11.2997 -0.896267
ltoes 0.0453676
87
root 8.51184 16.2938 -24.7703 8.54982 3.68146 2.94507
lowerback -4.55955 -4.13154 -5.11126
upperback -0.431272 -5.30867 2.28762
thorax 2.78913 -2.72689 4.83632
lowerneck -24.1218 -3.40575 -10.9536
upperneck 23.6332 -3.78729 10.7533
head 12.2341 -1.27593 5.29974
rclavicle -3.29983e-014 5.56597e-015
rhumerus -48.2595 8.41813 -83.5304
rradius 29.5405
rwrist -15.2647
rhand -30.7972 -22.1365
rfingers 7.12502
rthumb -4.08729 -52.077
lclavicle -3.29983e-014 5.56597e-015
lhumerus -13.1752 -19.0222 83.865
lradius 35.0708
lwrist 8.89609
lhand -14.5757 -27.0319
lfingers 7.12502
lthumb 11.574 2.62848
rfemur -41.0793 7.47927 13.5574
rtibia 28.2034
rfoot -20.1932 -7.3284
rtoes -19.7756
lfemur 8.19114 1.72498 -28.0131
ltibia 1.90833e-014
lfoot -11.4083 -1.27687
ltoes 0.576146
